<?xml version="1.0" encoding="UTF-8" standalone="no"?>
<!-- Created with Inkscape (http://www.inkscape.org/) -->

<svg
   width="1200"
   height="1200"
   viewBox="0 0 1200 1200"
   version="1.1"
   id="svg1"
   xml:space="preserve"
   inkscape:version="1.3.2 (091e20e, 2023-11-25, custom)"
   sodipodi:docname="MoonBeetleIcon.svg"
   inkscape:export-filename="MoonBeetleLogo3.svg"
   inkscape:export-xdpi="96"
   inkscape:export-ydpi="96"
   xmlns:inkscape="http://www.inkscape.org/namespaces/inkscape"
   xmlns:sodipodi="http://sodipodi.sourceforge.net/DTD/sodipodi-0.dtd"
   xmlns="http://www.w3.org/2000/svg"
   xmlns:svg="http://www.w3.org/2000/svg"
   xmlns:rdf="http://www.w3.org/1999/02/22-rdf-syntax-ns#"
   xmlns:cc="http://creativecommons.org/ns#"
   xmlns:dc="http://purl.org/dc/elements/1.1/"><defs
     id="defs1" /><sodipodi:namedview
     id="base"
     pagecolor="#ffffff"
     bordercolor="#000000"
     borderopacity="0.3"
     inkscape:pageopacity="0.0"
     inkscape:pageshadow="2"
     inkscape:zoom="0.29698485"
     inkscape:cx="225.60073"
     inkscape:cy="910.82087"
     inkscape:document-units="px"
     inkscape:showpageshadow="0"
     inkscape:pagecheckerboard="0"
     inkscape:deskcolor="#505050"
     showguides="true"
     inkscape:window-width="1920"
     inkscape:window-height="1017"
     inkscape:window-x="-8"
     inkscape:window-y="-8"
     inkscape:window-maximized="1"
     inkscape:current-layer="g16"
     inkscape:export-bgcolor="#ffffff00"><sodipodi:guide
       position="1350,2075"
       orientation="0,-1"
       id="guide6"
       inkscape:locked="false" /><sodipodi:guide
       position="-3637.5,-325"
       orientation="1,0"
       id="guide10"
       inkscape:locked="false" /></sodipodi:namedview><metadata
     id="metadata1"><rdf:RDF><cc:Work
         rdf:about=""><dc:format>image/svg+xml</dc:format><dc:type
           rdf:resource="http://purl.org/dc/dcmitype/StillImage" /></cc:Work></rdf:RDF></metadata><g
     inkscape:groupmode="layer"
     id="g16"
     inkscape:label="Beetle"
     style="display:inline;stroke:none"
     transform="matrix(4.954909,0,0,4.954909,-1857.0439,-2016.1602)"><path
       id="path4"
       fill="none"
       stroke="#b1e6a1"
       stroke-width="1.69242"
       stroke-linecap="square"
       stroke-linejoin="miter"
       stroke-miterlimit="2"
       d="m 556.89898,564.23064 c 0,33.64869 -27.27843,60.92713 -60.92714,60.92713 -33.64869,0 -60.92713,-27.27844 -60.92713,-60.92713 0,-33.6487 27.27844,-60.92713 60.92713,-60.92713 33.64871,0 60.92714,27.27843 60.92714,60.92713"
       sodipodi:nodetypes="ccccc"
       inkscape:label="Body"
       style="fill:#f6f1d5;fill-opacity:1;stroke:#000000;stroke-opacity:1" /><path
       id="path5"
       fill="none"
       stroke="#b1e6a1"
       stroke-width="2.94437"
       stroke-linecap="square"
       stroke-linejoin="miter"
       stroke-miterlimit="2"
       d="m 541.76183,478.58034 c 0,25.32873 -20.53447,45.86321 -45.86319,45.86321 -25.32872,0 -45.86321,-20.53448 -45.86321,-45.86321 0,-25.3287 20.53449,-45.8632 45.86321,-45.8632 25.32872,0 45.86319,20.5345 45.86319,45.8632"
       sodipodi:nodetypes="ccccc"
       inkscape:label="Head"
       style="display:inline;fill:#f6f1d5;fill-opacity:1;stroke:#000000;stroke-width:1.88619;stroke-dasharray:none;stroke-opacity:1" /><path
       id="path11"
       fill="none"
       stroke="#b1e6a1"
       stroke-width="1.62977"
       stroke-linecap="square"
       stroke-linejoin="miter"
       stroke-miterlimit="2"
       d="m 496.10691,520.05272 -0.0326,-0.0591 -0.81644,-1.37345 -0.84651,-1.34435 -0.87576,-1.31376 -0.90585,-1.28469 -0.93303,-1.25726 -0.96144,-1.22521 -0.98737,-1.19451 -1.01325,-1.16602 -1.0393,-1.13336 -1.06417,-1.10532 -1.08651,-1.07289 -1.11196,-1.04258 -1.13368,-1.0124 -1.15602,-0.97997 -1.17687,-0.94842 -1.19772,-0.91684 -1.21772,-0.88377 -1.2371,-0.85303 -1.25559,-0.82092 -1.27334,-0.7872 -1.29064,-0.7554 -1.30664,-0.72303 -1.32344,-0.68787 -1.3376,-0.65823 -1.35217,-0.6225 -1.36606,-0.58905 -1.37993,-0.55561 -1.3916,-0.52149 -1.40403,-0.48902 -1.41392,-0.45194 -1.42498,-0.42019 -1.43337,-0.38404 -1.44413,-0.34856 -1.45045,-0.31554 -1.46043,-0.27859 -1.46593,-0.24413 -1.47285,-0.2088 -1.47759,-0.1729 -1.48224,-0.137 -1.48752,-0.0989 -1.49008,-0.0661 -1.49308,-0.0271 -1.49544,0.009 -1.49632,0.0451 -1.49788,0.0832 -1.49783,0.1202 -1.4965,0.15654 -1.49563,0.19518 -1.49342,0.23295 -1.49111,0.27071 -1.48801,0.30995 -1.48427,0.34688 -1.47739,0.38593 -1.47428,0.42516 -1.46673,0.46181 -1.46049,0.50318 -1.45213,0.54137 -1.44527,0.58035 -1.43663,0.62231 -1.42684,0.65964 -1.41532,0.69986 -1.40525,0.74099 -1.39377,0.78123 -1.37347,0.81644 -1.34433,0.84649 -1.31377,0.87576 -1.2847,0.90585 -1.25724,0.93302 -1.22519,0.96146 -1.19452,0.9874 -1.16604,1.01322 -1.13335,1.0393 -1.10532,1.0642 -1.0729,1.08647 -1.04256,1.11196 -1.01243,1.13367 -0.97997,1.15604 -0.94841,1.17688 -0.91682,1.19769 -0.88379,1.21773 -0.85303,1.2371 -0.82081,1.25567 -0.78719,1.27333 -0.7554,1.29061 -0.72303,1.30666 -0.68787,1.32343 -0.65825,1.33764 -0.6225,1.35213 -0.58904,1.36606 -0.55563,1.37994 -0.52149,1.39164 -0.48901,1.40398 -0.45196,1.41394 -0.42016,1.42496 -0.38407,1.43335 -0.34857,1.44414 -0.31554,1.45049 -0.27858,1.46043 -0.24413,1.46589 -0.2088,1.47288 -0.1729,1.47755 -0.13698,1.48227 -0.0989,1.48751 -0.0661,1.49011 -0.0271,1.49309 0.009,1.4954 0.0451,1.49637 0.0832,1.49783 0.12021,1.49785 0.15655,1.49647 0.19517,1.49567 0.23295,1.49338 0.2707,1.49112 0.30996,1.48802 0.34689,1.48424 0.3859,1.4774 0.42519,1.47431 0.46181,1.46673 0.50318,1.46049 0.54135,1.45212 0.58038,1.44527 0.62228,1.43664 0.65964,1.42683 0.69986,1.41533 0.74099,1.40528 0.78122,1.39371 0.0353,0.0577 0.7593,0.42152 1.54359,0.80503 1.56167,0.76531 1.57829,0.72643 1.59342,0.68842 1.60917,0.64796 1.62353,0.60848 1.63781,0.56898 1.64982,0.52875 1.66181,0.48868 1.67381,0.44848 1.68351,0.40775 1.69317,0.36696 1.70283,0.32616 1.71026,0.28482 1.7176,0.24342 1.72414,0.20061 1.73004,0.16001 1.7351,0.11805 1.73932,0.0745 1.74206,0.032 1.74482,-0.011 1.74525,-0.054 1.74654,-0.0957 1.74845,-0.13985 1.74654,-0.18367 1.7447,-0.22756 1.74197,-0.27289 1.7395,-0.31444 1.73589,-0.36123 1.73025,-0.40489 1.72524,-0.45081 1.71953,-0.49445 1.71081,-0.54019 1.70339,-0.58678 1.69692,-0.63184 1.68433,-0.67736 1.67612,-0.72539 1.66441,-0.76944 1.65239,-0.81727 1.63901,-0.86419 1.62556,-0.91111 1.60186,-0.95223 1.56789,-0.98732 1.534,-1.0224 1.49856,-1.0567 1.46628,-1.08886 1.42875,-1.12002 1.39564,-1.15368 1.35983,-1.18179 1.3232,-1.21152 1.28797,-1.24197 1.25306,-1.26868 1.21572,-1.29604 1.18081,-1.32269 1.14207,-1.3492 1.10729,-1.37217 1.06943,-1.39714 1.03238,-1.4207 0.99533,-1.44428 0.95615,-1.46468 0.91935,-1.48447 0.8812,-1.50597 0.84343,-1.52461 0.80515,-1.54353 0.76531,-1.56166 0.72646,-1.5783 0.6883,-1.59342 0.64797,-1.60921 0.60849,-1.62355 0.56895,-1.63778 0.52877,-1.64984 0.48867,-1.6618 0.44847,-1.67381 0.40777,-1.68348 0.36693,-1.69318 0.3262,-1.70289 0.28479,-1.71022 0.24344,-1.71759 0.20055,-1.72412 0.16004,-1.73007 0.11805,-1.73511 0.0745,-1.73929 0.0145,-0.86832"
       sodipodi:nodetypes="ccccccccccccccccccccccccccccccccccccccccccccccccccccccccccccccccccccccccccccccccccccccccccccccccccccccccccccccccccccccccccccccccccccccccccccccccccccccccccccccccccccccccccccccccccccccccccccccccccccccccccccccccccccc"
       inkscape:label="RWing"
       style="fill:#ffcd05;fill-opacity:1;stroke:#000000;stroke-width:1.88619;stroke-dasharray:none;stroke-opacity:1" /><path
       id="path12"
       fill="none"
       stroke="#b1e6a1"
       stroke-width="1.62977"
       stroke-linecap="square"
       stroke-linejoin="miter"
       stroke-miterlimit="2"
       d="m 495.68994,520.05272 0.0326,-0.0591 0.81644,-1.37345 0.84651,-1.34435 0.87575,-1.31376 0.90587,-1.28469 0.93303,-1.25726 0.96145,-1.22521 0.98737,-1.19451 1.01323,-1.16602 1.03931,-1.13336 1.06417,-1.10532 1.0865,-1.07289 1.11196,-1.04258 1.13369,-1.0124 1.15601,-0.97997 1.1769,-0.94842 1.1977,-0.91684 1.21771,-0.88377 1.23709,-0.85303 1.25561,-0.82092 1.27333,-0.7872 1.29064,-0.7554 1.30665,-0.72303 1.32342,-0.68787 1.33763,-0.65823 1.35215,-0.6225 1.36606,-0.58905 1.37993,-0.55561 1.39159,-0.52149 1.40404,-0.48902 1.41392,-0.45194 1.42496,-0.42019 1.4334,-0.38404 1.44412,-0.34856 1.45046,-0.31554 1.46043,-0.27859 1.46592,-0.24413 1.47286,-0.2088 1.47758,-0.1729 1.48226,-0.137 1.48751,-0.0989 1.49009,-0.0661 1.49308,-0.0271 1.49542,0.009 1.49633,0.0451 1.49787,0.0832 1.49783,0.1202 1.49651,0.15654 1.49563,0.19518 1.49342,0.23295 1.4911,0.27071 1.48802,0.30995 1.48426,0.34688 1.47738,0.38593 1.4743,0.42516 1.46672,0.46181 1.46049,0.50318 1.45214,0.54137 1.44527,0.58035 1.43662,0.62231 1.42684,0.65964 1.41532,0.69986 1.40527,0.74099 1.39375,0.78123 1.37348,0.81644 1.34433,0.84649 1.31375,0.87576 1.2847,0.90585 1.25725,0.93302 1.22521,0.96146 1.19452,0.9874 1.16601,1.01322 1.13337,1.0393 1.10532,1.0642 1.0729,1.08647 1.04256,1.11196 1.01244,1.13367 0.97996,1.15604 0.9484,1.17688 0.91683,1.19769 0.88377,1.21773 0.85305,1.2371 0.82082,1.25567 0.78718,1.27333 0.75541,1.29061 0.72302,1.30666 0.68787,1.32343 0.65825,1.33764 0.6225,1.35213 0.58905,1.36606 0.5556,1.37994 0.52151,1.39164 0.489,1.40398 0.45196,1.41394 0.42017,1.42496 0.38407,1.43335 0.34856,1.44414 0.31555,1.45049 0.27856,1.46043 0.24414,1.46589 0.2088,1.47288 0.17291,1.47755 0.13697,1.48227 0.0988,1.48751 0.0661,1.49011 0.0272,1.49309 -0.009,1.4954 -0.045,1.49637 -0.0832,1.49783 -0.12021,1.49785 -0.15654,1.49647 -0.19518,1.49567 -0.23294,1.49338 -0.27069,1.49112 -0.30998,1.48802 -0.34688,1.48424 -0.38591,1.4774 -0.42517,1.47431 -0.46184,1.46673 -0.50318,1.46049 -0.54134,1.45212 -0.58037,1.44527 -0.62227,1.43664 -0.65964,1.42683 -0.69988,1.41533 -0.74097,1.40528 -0.78123,1.39371 -0.0353,0.0577 -0.75928,0.42152 -1.54361,0.80503 -1.56166,0.76531 -1.57827,0.72643 -1.59343,0.68842 -1.6092,0.64796 -1.62352,0.60848 -1.6378,0.56898 -1.64984,0.52875 -1.6618,0.48868 -1.6738,0.44848 -1.68352,0.40775 -1.69317,0.36696 -1.70282,0.32616 -1.71027,0.28482 -1.71758,0.24342 -1.72417,0.20061 -1.73002,0.16001 -1.73511,0.11805 -1.73932,0.0745 -1.74206,0.032 -1.74483,-0.011 -1.74523,-0.054 -1.74654,-0.0957 -1.74845,-0.13985 -1.74655,-0.18367 -1.7447,-0.22756 -1.74198,-0.27289 -1.73949,-0.31444 -1.73587,-0.36123 -1.73025,-0.40489 -1.72526,-0.45081 -1.71953,-0.49445 -1.71079,-0.54019 -1.70339,-0.58678 -1.69693,-0.63184 -1.68434,-0.67736 -1.67612,-0.72539 -1.66439,-0.76944 -1.65241,-0.81727 -1.63901,-0.86419 -1.62556,-0.91111 -1.60184,-0.95223 -1.5679,-0.98732 -1.53401,-1.0224 -1.49854,-1.0567 -1.4663,-1.08886 -1.42873,-1.12002 -1.39566,-1.15368 -1.35984,-1.18179 -1.32319,-1.21152 -1.28797,-1.24197 -1.25305,-1.26868 -1.21573,-1.29604 -1.18082,-1.32269 -1.14204,-1.3492 -1.1073,-1.37217 -1.06944,-1.39714 -1.03238,-1.4207 -0.99533,-1.44428 -0.95615,-1.46468 -0.91935,-1.48447 -0.8812,-1.50597 -0.84342,-1.52461 -0.80516,-1.54353 -0.7653,-1.56166 -0.72647,-1.5783 -0.6883,-1.59342 -0.64798,-1.60921 -0.60847,-1.62355 -0.56895,-1.63778 -0.52876,-1.64984 -0.48868,-1.6618 -0.44847,-1.67381 -0.40777,-1.68348 -0.36694,-1.69318 -0.32618,-1.70289 -0.28481,-1.71022 -0.24344,-1.71759 -0.20054,-1.72412 -0.16004,-1.73007 -0.11804,-1.73511 -0.0745,-1.73929 -0.0146,-0.86832"
       sodipodi:nodetypes="ccccccccccccccccccccccccccccccccccccccccccccccccccccccccccccccccccccccccccccccccccccccccccccccccccccccccccccccccccccccccccccccccccccccccccccccccccccccccccccccccccccccccccccccccccccccccccccccccccccccccccccccccccccc"
       inkscape:label="LWing"
       style="fill:#ffcd05;fill-opacity:1;stroke:#000000;stroke-width:1.88619;stroke-dasharray:none;stroke-opacity:1" /><path
       id="path14"
       style="fill:#e1cb96;fill-opacity:1;stroke:#000000;stroke-width:1.88619;stroke-dasharray:none;stroke-opacity:1"
       d="m 435.54484,450.34289 -1.54441,0.0265 -1.53621,0.0674 -1.5309,0.10483 -1.52025,0.14246 -1.51372,0.18173 -1.50388,0.21776 -1.49406,0.25543 -1.48299,0.29184 -1.47196,0.3283 -1.46009,0.36472 -1.44861,0.39949 -1.43594,0.43389 -1.42159,0.4695 -1.4081,0.50267 -1.39377,0.53621 -1.37782,0.57185 -1.36389,0.6013 -1.34629,0.63569 -1.32908,0.66802 -1.31272,0.69996 -1.2939,0.73066 -1.27711,0.76135 -1.25501,0.79247 -1.23781,0.82153 -1.21573,0.8514 -1.19524,0.88211 -1.17396,0.9083 -1.15227,0.93942 -1.12935,0.96643 -1.10681,0.99386 -1.08187,1.02086 -1.05772,1.04748 -1.03191,1.07573 -1.00858,1.09904 -0.98035,1.12648 -0.95417,1.15145 -0.92713,1.17519 -0.8993,1.20097 -0.87065,1.22471 -0.84199,1.24684 -0.81169,1.27138 -0.78183,1.29389 -0.75113,1.316 -0.71878,1.33932 -0.68848,1.35981 -0.65412,1.37985 -0.62178,1.40277 -0.58902,1.42038 -0.55341,1.44206 -0.51864,1.4605 -0.48424,1.48014 -0.44698,1.50061 -0.41179,1.51698 -0.37372,1.53418 -0.33564,1.55259 -0.29718,1.57019 120.00265,21.15952 0.25749,-1.57674 0.21571,-1.57387 0.17355,-1.56937 0.13181,-1.56651 0.0937,-1.56282 0.0507,-1.55671 0.0115,-1.54972 -0.0265,-1.5444 -0.0674,-1.53622 -0.10483,-1.5309 -0.14244,-1.52025 -0.18174,-1.51329 -0.21777,-1.50429 -0.25542,-1.49404 -0.29226,-1.48302 -0.32788,-1.47194 -0.36472,-1.45968 -0.3995,-1.44904 -0.4343,-1.43551 -0.46909,-1.4216 -0.50265,-1.40853 -0.53623,-1.39377 -0.57185,-1.3778 -0.60128,-1.36388 -0.63571,-1.34589 -0.66802,-1.32951 -0.69996,-1.31272 -0.73066,-1.29389 -0.76134,-1.27712 -0.79247,-1.255 -0.82153,-1.23782 -0.85141,-1.21571 -0.8821,-1.19524 -0.9083,-1.17396 -0.93941,-1.15228 -0.96644,-1.12933 -0.99386,-1.10643 -1.02087,-1.08227 -1.04747,-1.0577 -1.07573,-1.03193 -1.09905,-1.00818 -1.12647,-0.98077 -1.15146,-0.95414 -1.17519,-0.92713 -1.20096,-0.8993 -1.22472,-0.87064 -1.24684,-0.84201 -1.27136,-0.8117 -1.29391,-0.78141 -1.31599,-0.75112 -1.33933,-0.71918 -1.3598,-0.68851 -1.37985,-0.6537 -1.40277,-0.62218 -1.42037,-0.58903 -1.44208,-0.55342 -1.4605,-0.51861 -1.48014,-0.48424 -1.50061,-0.44698 -1.51698,-0.41179 -1.53417,-0.37332 -1.55259,-0.33607 -1.57019,-0.29716 8.3e-4,8.1e-4 -1.57717,-0.25746 -1.57388,-0.21572 -1.56936,-0.17356 -1.56611,-0.1318 -1.56283,-0.0937 -1.55666,-0.0507 z m 109.79207,0.93556 1.57691,-0.25745 1.57396,-0.21563 1.56932,-0.17361 1.5664,-0.13185 1.56286,-0.0934 1.55657,-0.0509 1.54972,-0.0126 1.5445,0.0266 1.53625,0.0675 1.53078,0.10472 1.52029,0.14265 1.51338,0.18168 1.50429,0.21767 1.4938,0.25559 1.483,0.29187 1.47221,0.32816 1.45976,0.36471 1.44866,0.39932 1.43593,0.43421 1.42151,0.46942 1.40846,0.50264 1.39374,0.53619 1.37766,0.57166 1.36404,0.60157 1.346,0.63566 1.32932,0.66784 1.31262,0.69998 1.29403,0.73077 1.27706,0.76128 1.25509,0.7926 1.23783,0.82146 1.21556,0.85116 1.19528,0.88223 1.17408,0.90828 1.15213,0.93968 1.12927,0.96605 1.10673,0.99405 1.08221,1.02075 1.0577,1.0474 1.03181,1.07604 1.00838,1.09905 0.98054,1.12631 0.95405,1.15162 0.92728,1.17521 0.89915,1.20083 0.8707,1.22472 0.842,1.24699 0.81187,1.27118 0.7815,1.29376 0.75109,1.31627 0.71903,1.3391 0.68833,1.36001 0.65403,1.37979 0.62197,1.40265 0.58901,1.42046 0.55333,1.44226 0.51871,1.46036 0.48441,1.48017 0.44676,1.50054 0.41183,1.51703 0.37363,1.53408 0.33565,1.55278 0.29743,1.56985 -120.00302,21.15976 -0.25742,-1.5769 -0.21568,-1.57395 -0.17359,-1.56934 -0.13185,-1.56639 -0.0934,-1.56285 -0.0509,-1.55658 -0.0115,-1.5497 0.0266,-1.54452 0.0675,-1.53628 0.10473,-1.53075 0.14266,-1.52029 0.18168,-1.51338 0.21767,-1.50429 0.25561,-1.49379 0.29186,-1.483 0.32814,-1.47221 0.36472,-1.45977 0.39933,-1.44867 0.43421,-1.43591 0.46943,-1.42151 0.50262,-1.40847 0.53619,-1.39373 0.57165,-1.37766 0.60156,-1.36404 0.63569,-1.34602 0.66784,-1.3293 0.69997,-1.31264 0.73078,-1.294 0.76125,-1.27707 0.79262,-1.25508 0.82146,-1.23783 0.85115,-1.21557 0.88222,-1.19528 0.9083,-1.17409 0.93969,-1.15213 0.96602,-1.12927 0.99409,-1.10672 1.02073,-1.08221 1.04742,-1.05771 1.07601,-1.03182 1.09907,-1.00837 1.12631,-0.98053 1.15159,-0.95405 1.17524,-0.92729 1.20081,-0.89915 1.22473,-0.8707 1.24697,-0.842 1.27121,-0.81187 1.29373,-0.7815 1.31629,-0.75109 1.33912,-0.71901 1.35998,-0.68836 1.37981,-0.65402 1.40264,-0.62195 1.42047,-0.58902 1.44224,-0.55334 1.46036,-0.51871 1.48017,-0.48441 1.50057,-0.44675 1.517,-0.41183 1.53408,-0.37363 1.55279,-0.33567 1.56984,-0.29742"
       inkscape:label="Shells" /><path
       id="shape0"
       fill="none"
       stroke="#b1e6a1"
       stroke-width="0.930801"
       stroke-linecap="square"
       stroke-linejoin="miter"
       stroke-miterlimit="2"
       d="m 562.78196,427.07022 0.93654,0.805 0.90869,0.82599 0.88262,0.84287 0.85621,0.86209 0.83185,0.87901 0.80354,0.89637 0.77752,0.91123 0.7517,0.92766 0.72331,0.94323 0.6985,0.95852 0.67125,0.97082 0.64443,0.98623 0.61853,0.99882 0.59109,1.01142 0.56367,1.02338 0.53718,1.0347 0.51013,1.04509 0.48337,1.05622 0.45621,1.06599 0.42837,1.0749 0.40125,1.08405 0.37507,1.09162 0.34605,1.09976 0.32154,1.10648 0.2918,1.11308 0.26508,1.11886 0.23771,1.12506 0.21029,1.12926 0.1838,1.13439 0.1542,1.13697 0.1286,1.14106 0.1,1.14272 0.0715,1.14605 0.0455,1.1465 0.016,1.14907 -0.0113,1.14863 -0.0387,1.14923 -0.0668,1.14794 -0.0947,1.14666 -0.12439,1.14559 -0.14978,1.14315 -0.17974,1.1402 -0.20782,1.13707 -0.23519,1.13297 -0.26427,1.12901 -0.29261,1.12407 -0.32005,1.11808 -0.34943,1.1122 -0.37758,1.10569 -0.4061,1.09885 -0.43568,1.09102 -0.46345,1.08314 -0.49208,1.07278 -0.5214,1.06535 -0.54846,1.05447 -0.57912,1.04413 -0.607,1.03272 -0.63569,1.02226 -0.66661,1.01003 -0.69361,0.99762 -0.72293,0.98329 -0.75143,0.97122 -0.74898,0.91532 0.1056,-0.6628 0.17673,-1.33397 0.14304,-1.33662 0.11045,-1.33843 0.0787,-1.33934 0.0452,-1.34018 0.0126,-1.34 -0.0197,-1.34006 -0.052,-1.33814 -0.0842,-1.33619 -0.11679,-1.33431 -0.14892,-1.33059 -0.18113,-1.32684 -0.21323,-1.32308 -0.24529,-1.3175 -0.27727,-1.3119 -0.31009,-1.30533 -0.34157,-1.29877 -0.37284,-1.29156 -0.4057,-1.283 -0.43733,-1.27376 -0.46907,-1.26448 -0.50062,-1.25336 -0.53135,-1.24326 -0.56358,-1.23312 -0.59518,-1.22001 -0.62637,-1.20719 -0.65868,-1.1931 -0.6885,-1.18019 -0.72118,-1.16552 -0.75146,-1.1497 -0.78369,-1.13382 -0.81366,-1.11831 -0.84474,-1.09969 -0.87659,-1.08212 -0.90721,-1.06574 -0.93735,-1.04424 -0.96989,-1.02584 -0.99919,-1.00516 -1.03056,-0.98404 -1.06094,-0.96204 -1.09096,-0.94057 -1.11573,-0.91095 -1.13169,-0.87786 -1.14802,-0.84407 -1.16375,-0.809 -1.17865,-0.777 -1.19109,-0.74183 -1.20691,-0.70867 -1.21783,-0.67542 -1.22967,-0.64089 -1.24251,-0.60728 -1.25283,-0.57463 -1.26279,-0.54045 -1.27299,-0.50789 -1.28194,-0.47277 -1.28937,-0.44151 -1.29748,-0.40742 -1.30487,-0.37423 -1.31223,-0.34112 -1.31659,-0.30729 -1.32129,-0.27536 -1.32676,-0.24227 -1.33032,-0.20955 -1.33402,-0.17674 -1.33659,-0.14303 -1.33839,-0.11048 -1.33939,-0.0788 -1.34019,-0.0451 -1.34,-0.0126 -1.34007,0.0196 -1.33811,0.0521 -1.33624,0.0845 -1.33429,0.11665 -1.33061,0.14894 -1.32677,0.18112 -1.32312,0.21323 -1.31749,0.24515 -1.31193,0.27742 -1.30524,0.3103 -1.29881,0.34157 -1.29147,0.37281 -1.28304,0.40572 -0.63507,0.218 0.7713,-0.89651 0.82603,-0.9087 0.84288,-0.88266 0.86206,-0.85618 0.87895,-0.83186 0.8964,-0.80353 0.91127,-0.77755 0.92767,-0.75166 0.94318,-0.72333 0.95857,-0.69847 0.97076,-0.67126 0.98625,-0.64442 0.99882,-0.61858 1.01144,-0.59107 1.02335,-0.56365 1.03462,-0.53738 1.04518,-0.51013 1.05616,-0.48336 1.06603,-0.45622 1.07489,-0.42835 1.08328,-0.40321 1.09165,-0.37506 1.09981,-0.34598 1.10645,-0.32175 1.113,-0.29178 1.119,-0.2649 1.12504,-0.2376 1.12922,-0.21062 1.13437,-0.18377 1.13696,-0.1542 1.14111,-0.12859 1.1426,-0.1 1.14609,-0.0716 1.14651,-0.0455 1.14909,-0.016 1.14858,0.0113 1.14925,0.0386 1.14787,0.0668 1.14672,0.0947 1.14563,0.12454 1.14314,0.14977 1.14016,0.17969 1.13707,0.20788 1.13303,0.2352 1.12898,0.26426 1.12406,0.29261 1.11809,0.32006 1.11219,0.3494 1.10574,0.37761 1.09881,0.40604 1.091,0.43576 1.08323,0.4634 1.07269,0.49209 1.0653,0.52137 1.05451,0.54853 1.04413,0.57908 1.03273,0.60705 1.0223,0.63567 1.00999,0.6666 0.99759,0.69361 0.9833,0.72289 0.97122,0.75148 0.9555,0.78255"
       sodipodi:nodetypes="ccccccccccccccccccccccccccccccccccccccccccccccccccccccccccccccccccccccccccccccccccccccccccccccccccccccccccccccccccccccccccccccccccccccccccccccccccccccccccccccccccccccccccccccccccccccccccccccccccccccccccccccccccc"
       style="display:inline;fill:#a2c47b;fill-opacity:1;stroke:#000000;stroke-width:1.88619;stroke-dasharray:none;stroke-opacity:1"
       inkscape:label="RAntenae" /><path
       id="path1"
       fill="none"
       stroke="#b1e6a1"
       stroke-width="0.930801"
       stroke-linecap="square"
       stroke-linejoin="miter"
       stroke-miterlimit="2"
       d="m 429.68998,427.07023 -0.93654,0.80499 -0.9087,0.82599 -0.8826,0.84287 -0.85622,0.86209 -0.83184,0.87902 -0.80355,0.89636 -0.77752,0.91123 -0.75169,0.92766 -0.72331,0.94323 -0.69851,0.95853 -0.67125,0.97082 -0.64443,0.98623 -0.61852,0.99881 -0.59112,1.01143 -0.56366,1.02338 -0.53716,1.0347 -0.51015,1.0451 -0.48337,1.0562 -0.4562,1.066 -0.42837,1.07489 -0.40125,1.08406 -0.37507,1.09161 -0.34605,1.09977 -0.32154,1.10647 -0.2918,1.11308 -0.26509,1.11886 -0.2377,1.12507 -0.2103,1.12925 -0.18379,1.1344 -0.1542,1.13696 -0.12859,1.14107 -0.10011,1.14273 -0.0715,1.14604 -0.0455,1.14649 -0.016,1.14907 0.0113,1.14863 0.0387,1.14926 0.0668,1.14792 0.0947,1.14666 0.12438,1.14559 0.1498,1.14315 0.17971,1.14019 0.20785,1.13707 0.23517,1.13297 0.26429,1.12902 0.29259,1.12407 0.32004,1.11808 0.34946,1.1122 0.37757,1.10568 0.4061,1.09885 0.43568,1.09103 0.46345,1.08313 0.49208,1.07279 0.52138,1.06535 0.54848,1.05447 0.57912,1.04413 0.60699,1.03272 0.63571,1.02227 0.6666,1.01002 0.6936,0.99761 0.72294,0.9833 0.75142,0.97121 0.74898,0.91532 -0.10558,-0.66279 -0.17675,-1.33397 -0.14304,-1.33663 -0.11045,-1.33842 -0.0787,-1.33934 -0.0452,-1.34018 -0.0126,-1.34001 0.0198,-1.34006 0.0521,-1.33812 0.0844,-1.3362 0.11678,-1.33431 0.14893,-1.33056 0.18112,-1.32686 0.21323,-1.32309 0.2453,-1.3175 0.27729,-1.3119 0.31008,-1.30532 0.34156,-1.29877 0.37284,-1.29156 0.4057,-1.283 0.43733,-1.27377 0.46907,-1.26448 0.50063,-1.25336 0.53133,-1.24326 0.56359,-1.23311 0.59517,-1.22001 0.62637,-1.20719 0.65869,-1.1931 0.68849,-1.18019 0.72118,-1.16553 0.75148,-1.1497 0.78368,-1.13382 0.81367,-1.11831 0.84472,-1.09969 0.87658,-1.08212 0.90723,-1.06573 0.93734,-1.04426 0.9699,-1.02583 0.99919,-1.00516 1.03057,-0.98404 1.06095,-0.96204 1.09092,-0.94056 1.11576,-0.91095 1.13168,-0.87786 1.14801,-0.84407 1.16377,-0.809 1.17862,-0.77701 1.19111,-0.74183 1.2069,-0.70867 1.21784,-0.67542 1.22968,-0.64088 1.24249,-0.60728 1.25284,-0.57464 1.26279,-0.54045 1.27299,-0.50788 1.28193,-0.47277 1.28937,-0.44152 1.29749,-0.40741 1.30485,-0.37425 1.31226,-0.34111 1.31659,-0.30727 1.32127,-0.27538 1.32676,-0.24226 1.33033,-0.20956 1.33402,-0.17674 1.33659,-0.14303 1.33839,-0.11048 1.33938,-0.0788 1.34017,-0.0453 1.34003,-0.0126 1.34007,0.0197 1.33811,0.0521 1.33623,0.0845 1.3343,0.11664 1.33061,0.14894 1.32677,0.18112 1.32311,0.21323 1.31749,0.24516 1.31194,0.27741 1.30524,0.3103 1.29881,0.34157 1.29148,0.37281 1.28303,0.40572 0.63507,0.218 -0.77131,-0.89651 -0.82601,-0.9087 -0.84289,-0.88265 -0.86206,-0.85618 -0.87896,-0.83186 -0.89638,-0.80353 -0.91127,-0.77755 -0.92768,-0.75167 -0.94319,-0.72333 -0.95857,-0.69847 -0.97074,-0.67126 -0.98626,-0.64441 -0.99884,-0.61858 -1.01141,-0.59108 -1.02337,-0.56364 -1.03461,-0.53739 -1.04518,-0.51013 -1.05616,-0.48335 -1.06603,-0.45623 -1.07489,-0.42835 -1.08328,-0.40321 -1.09166,-0.37505 -1.0998,-0.34599 -1.10646,-0.32173 -1.11299,-0.29178 -1.119,-0.26491 -1.12504,-0.23761 -1.12923,-0.21062 -1.13436,-0.18377 -1.13696,-0.1542 -1.1411,-0.12859 -1.14263,-0.1 -1.14606,-0.0716 -1.14651,-0.0455 -1.1491,-0.016 -1.14857,0.0113 -1.14926,0.0386 -1.14789,0.0668 -1.14671,0.0947 -1.14561,0.12455 -1.14315,0.14976 -1.14017,0.17971 -1.13706,0.20786 -1.13303,0.2352 -1.12899,0.26426 -1.12405,0.29261 -1.11809,0.32006 -1.11221,0.3494 -1.10572,0.37761 -1.09882,0.40604 -1.09099,0.43576 -1.08322,0.46341 -1.0727,0.49209 -1.0653,0.52136 -1.05452,0.54854 -1.04411,0.57907 -1.03275,0.60705 -1.02228,0.63567 -1.01,0.6666 -0.99759,0.69362 -0.9833,0.72289 -0.97122,0.75148 -0.9555,0.78254"
       sodipodi:nodetypes="ccccccccccccccccccccccccccccccccccccccccccccccccccccccccccccccccccccccccccccccccccccccccccccccccccccccccccccccccccccccccccccccccccccccccccccccccccccccccccccccccccccccccccccccccccccccccccccccccccccccccccccccccccc"
       style="display:inline;fill:#a2c47b;fill-opacity:1;stroke:#000000;stroke-width:1.88619;stroke-dasharray:none;stroke-opacity:1"
       inkscape:label="LAntenae" /></g></svg>
