<?xml version="1.0" encoding="UTF-8" standalone="no"?>
<!-- Created with Inkscape (http://www.inkscape.org/) -->

<svg
   width="1200"
   height="1200"
   viewBox="0 0 1200 1200"
   version="1.1"
   id="svg1"
   xml:space="preserve"
   inkscape:version="1.3.2 (091e20e, 2023-11-25, custom)"
   sodipodi:docname="Moon Beetle.svg"
   inkscape:export-filename="MoonBeetleLogo3.svg"
   inkscape:export-xdpi="96"
   inkscape:export-ydpi="96"
   xmlns:inkscape="http://www.inkscape.org/namespaces/inkscape"
   xmlns:sodipodi="http://sodipodi.sourceforge.net/DTD/sodipodi-0.dtd"
   xmlns="http://www.w3.org/2000/svg"
   xmlns:svg="http://www.w3.org/2000/svg"
   xmlns:rdf="http://www.w3.org/1999/02/22-rdf-syntax-ns#"
   xmlns:cc="http://creativecommons.org/ns#"
   xmlns:dc="http://purl.org/dc/elements/1.1/"><defs
     id="defs1" /><sodipodi:namedview
     id="base"
     pagecolor="#ffffff"
     bordercolor="#000000"
     borderopacity="0.3"
     inkscape:pageopacity="0.0"
     inkscape:pageshadow="2"
     inkscape:zoom="0.42"
     inkscape:cx="84.52381"
     inkscape:cy="710.71429"
     inkscape:document-units="px"
     inkscape:showpageshadow="0"
     inkscape:pagecheckerboard="0"
     inkscape:deskcolor="#505050"
     showguides="true"
     inkscape:window-width="1920"
     inkscape:window-height="1017"
     inkscape:window-x="-8"
     inkscape:window-y="-8"
     inkscape:window-maximized="1"
     inkscape:current-layer="g16"
     inkscape:export-bgcolor="#ffffff00"><sodipodi:guide
       position="1350,2075"
       orientation="0,-1"
       id="guide6"
       inkscape:locked="false" /><sodipodi:guide
       position="-3637.5,-325.00001"
       orientation="1,0"
       id="guide10"
       inkscape:locked="false" /></sodipodi:namedview><metadata
     id="metadata1"><rdf:RDF><cc:Work
         rdf:about=""><dc:format>image/svg+xml</dc:format><dc:type
           rdf:resource="http://purl.org/dc/dcmitype/StillImage" /></cc:Work></rdf:RDF></metadata><g
     inkscape:groupmode="layer"
     id="g16"
     inkscape:label="Beetle"
     style="display:inline;stroke:none"
     transform="matrix(4.954909,0,0,4.954909,-1857.0439,-2016.1602)"><circle
       style="fill:#668d9b;fill-opacity:1;stroke:none;stroke-width:1.81638;stroke-dasharray:none;stroke-opacity:1"
       id="circle1"
       cx="495.88074"
       cy="531.30609"
       r="121.09203"
       transform="translate(0,-3.3125)" /><path
       id="path4"
       fill="none"
       stroke="#b1e6a1"
       stroke-width="1.54828"
       stroke-linecap="square"
       stroke-linejoin="miter"
       stroke-miterlimit="2"
       d="m 551.82585,560.51116 c 0,30.78307 -24.95531,55.73839 -55.73838,55.73839 -30.78307,0 -55.73839,-24.95532 -55.73839,-55.73839 0,-30.78307 24.95532,-55.73838 55.73839,-55.73838 30.78307,0 55.73838,24.95531 55.73838,55.73838"
       sodipodi:nodetypes="ccccc"
       inkscape:label="Body"
       style="fill:#f6f1d5;fill-opacity:1;stroke:#000000;stroke-opacity:1" /><path
       id="path5"
       fill="none"
       stroke="#b1e6a1"
       stroke-width="2.94437"
       stroke-linecap="square"
       stroke-linejoin="miter"
       stroke-miterlimit="2"
       d="m 537.97784,482.15512 c 0,23.17164 -18.7857,41.95735 -41.95734,41.95735 -23.17165,0 -41.95735,-18.78571 -41.95735,-41.95735 0,-23.17164 18.7857,-41.95735 41.95735,-41.95735 23.17164,0 41.95734,18.78571 41.95734,41.95735"
       sodipodi:nodetypes="ccccc"
       inkscape:label="Head"
       style="display:inline;fill:#f6f1d5;fill-opacity:1;stroke:#000000;stroke-width:1.72556;stroke-dasharray:none;stroke-opacity:1" /><path
       id="path11"
       fill="none"
       stroke="#b1e6a1"
       stroke-width="1.62977"
       stroke-linecap="square"
       stroke-linejoin="miter"
       stroke-miterlimit="2"
       d="m 496.21102,520.09558 -0.0298,-0.054 -0.74691,-1.25649 -0.77441,-1.22986 -0.80117,-1.20187 -0.82872,-1.17528 -0.85356,-1.15019 -0.87957,-1.12087 -0.90329,-1.09277 -0.92694,-1.06672 -0.95079,-1.03684 -0.97356,-1.01119 -0.99397,-0.98152 -1.01726,-0.95379 -1.03713,-0.92619 -1.05757,-0.8965 -1.07665,-0.86766 -1.09571,-0.83875 -1.11402,-0.80851 -1.13174,-0.78039 -1.14867,-0.751 -1.16489,-0.72016 -1.18072,-0.69107 -1.19537,-0.66145 -1.21073,-0.62929 -1.22369,-0.60218 -1.23701,-0.56948 -1.24972,-0.53889 -1.26242,-0.5083 -1.27308,-0.47707 -1.28446,-0.44737 -1.29351,-0.41346 -1.30361,-0.38439 -1.31131,-0.35134 -1.32114,-0.31887 -1.32693,-0.28867 -1.33606,-0.25487 -1.34108,-0.22333 -1.34743,-0.19103 -1.35174,-0.15817 -1.35601,-0.12533 -1.36085,-0.0904 -1.36318,-0.0604 -1.36592,-0.0249 -1.36807,0.009 -1.3689,0.0412 -1.37031,0.0761 -1.37027,0.10996 -1.36905,0.1432 -1.36827,0.17857 -1.36624,0.2131 -1.36411,0.24766 -1.36129,0.28356 -1.35786,0.31734 -1.35157,0.35306 -1.34873,0.38894 -1.34182,0.4225 -1.33611,0.46032 -1.32846,0.49527 -1.32219,0.53091 -1.31428,0.56932 -1.30533,0.60346 -1.29478,0.64027 -1.28558,0.67787 -1.27506,0.7147 -1.25651,0.74691 -1.22984,0.77441 -1.20188,0.80117 -1.17529,0.82871 -1.15017,0.85356 -1.12086,0.87958 -1.09279,0.9033 -1.06673,0.92694 -1.03684,0.95079 -1.01118,0.97356 -0.98153,0.99395 -0.95378,1.01726 -0.9262,1.03713 -0.89652,1.05759 -0.86763,1.07665 -0.83875,1.09568 -0.80851,1.11403 -0.78039,1.13175 -0.75091,1.14872 -0.72015,1.16489 -0.69107,1.18071 -0.66145,1.19538 -0.62929,1.21072 -0.6022,1.22371 -0.56948,1.23699 -0.53888,1.24973 -0.5083,1.26241 -0.47709,1.27312 -0.44736,1.28443 -0.41347,1.29351 -0.38437,1.30361 -0.35137,1.31129 -0.31888,1.32115 -0.28867,1.32695 -0.25485,1.33606 -0.22334,1.34105 -0.19101,1.34744 -0.15819,1.35173 -0.12531,1.35603 -0.0904,1.36082 -0.0604,1.36321 -0.0249,1.36593 0.009,1.36806 0.0412,1.36892 0.0761,1.37028 0.10997,1.37029 0.14321,1.36903 0.17856,1.36828 0.21311,1.3662 0.24764,1.36414 0.28357,1.36129 0.31735,1.35785 0.35304,1.35157 0.38896,1.34875 0.4225,1.34182 0.46032,1.33611 0.49525,1.32846 0.53094,1.32218 0.56929,1.31429 0.60346,1.30532 0.64027,1.2948 0.67787,1.28559 0.7147,1.27503 0.0323,0.0528 0.69463,0.38562 1.41214,0.73647 1.42868,0.70014 1.44386,0.66457 1.45772,0.62979 1.47214,0.59278 1.48526,0.55666 1.49833,0.52051 1.50932,0.48373 1.52028,0.44705 1.53127,0.4103 1.54014,0.37302 1.54897,0.3357 1.55781,0.2984 1.56461,0.26055 1.57132,0.2227 1.57731,0.18351 1.5827,0.14639 1.58734,0.108 1.59119,0.0682 1.5937,0.0293 1.59623,-0.01 1.59661,-0.0493 1.59781,-0.0876 1.59954,-0.12793 1.59781,-0.16803 1.5961,-0.20818 1.59363,-0.24965 1.59135,-0.28767 1.58806,-0.33046 1.5829,-0.37041 1.57831,-0.41241 1.57309,-0.45235 1.56511,-0.49419 1.55832,-0.5368 1.55242,-0.57803 1.54087,-0.61968 1.53338,-0.66362 1.52266,-0.7039 1.51167,-0.74767 1.49943,-0.7906 1.48712,-0.83351 1.46544,-0.87114 1.43437,-0.90324 1.40336,-0.93532 1.37093,-0.96672 1.34141,-0.99612 1.30707,-1.02463 1.27679,-1.05543 1.24403,-1.08115 1.2105,-1.10835 1.17829,-1.13619 1.14634,-1.16064 1.11219,-1.18566 1.08025,-1.21005 1.0448,-1.2343 1.01299,-1.25531 0.97836,-1.27815 0.94446,-1.29971 0.91056,-1.32128 0.87472,-1.33995 0.84106,-1.35804 0.80615,-1.37772 0.7716,-1.39477 0.73658,-1.41208 0.70013,-1.42867 0.6646,-1.44388 0.62968,-1.45772 0.59279,-1.47217 0.55666,-1.48528 0.52051,-1.4983 0.48373,-1.50933 0.44706,-1.52028 0.41027,-1.53127 0.37304,-1.54011 0.33569,-1.54898 0.29841,-1.55786 0.26055,-1.56458 0.2227,-1.57131 0.18347,-1.57729 0.14641,-1.58273 0.108,-1.58734 0.0682,-1.59117 0.0133,-0.79437"
       sodipodi:nodetypes="ccccccccccccccccccccccccccccccccccccccccccccccccccccccccccccccccccccccccccccccccccccccccccccccccccccccccccccccccccccccccccccccccccccccccccccccccccccccccccccccccccccccccccccccccccccccccccccccccccccccccccccccccccccc"
       inkscape:label="RWing"
       style="fill:#ffcd05;fill-opacity:1;stroke:#000000;stroke-width:1.72556;stroke-dasharray:none;stroke-opacity:1" /><path
       id="path12"
       fill="none"
       stroke="#b1e6a1"
       stroke-width="1.62977"
       stroke-linecap="square"
       stroke-linejoin="miter"
       stroke-miterlimit="2"
       d="m 495.82957,520.09558 0.0298,-0.054 0.74691,-1.25649 0.77441,-1.22986 0.80117,-1.20187 0.82872,-1.17528 0.85357,-1.15019 0.87957,-1.12087 0.90329,-1.09277 0.92694,-1.06672 0.95079,-1.03684 0.97355,-1.01119 0.99397,-0.98152 1.01726,-0.95379 1.03714,-0.92619 1.05756,-0.8965 1.07667,-0.86766 1.0957,-0.83875 1.11401,-0.80851 1.13174,-0.78039 1.14867,-0.751 1.16489,-0.72016 1.18073,-0.69107 1.19537,-0.66145 1.21072,-0.62929 1.2237,-0.60218 1.237,-0.56948 1.24972,-0.53889 1.26242,-0.5083 1.27308,-0.47707 1.28446,-0.44737 1.29351,-0.41346 1.30361,-0.38439 1.31131,-0.35134 1.32114,-0.31887 1.32693,-0.28867 1.33606,-0.25487 1.34108,-0.22333 1.34743,-0.19103 1.35174,-0.15817 1.35602,-0.12533 1.36084,-0.0904 1.36319,-0.0604 1.36592,-0.0249 1.36807,0.009 1.36889,0.0412 1.37031,0.0761 1.37027,0.10996 1.36906,0.1432 1.36826,0.17857 1.36624,0.2131 1.36411,0.24766 1.36129,0.28356 1.35786,0.31734 1.35157,0.35306 1.34873,0.38894 1.34182,0.4225 1.33611,0.46032 1.32847,0.49527 1.32219,0.53091 1.31427,0.56932 1.30533,0.60346 1.29478,0.64027 1.28559,0.67787 1.27506,0.7147 1.2565,0.74691 1.22985,0.77441 1.20187,0.80117 1.17529,0.82871 1.15017,0.85356 1.12087,0.87958 1.09279,0.9033 1.06672,0.92694 1.03684,0.95079 1.01119,0.97356 0.98153,0.99395 0.95377,1.01726 0.92621,1.03713 0.89651,1.05759 0.86763,1.07665 0.83875,1.09568 0.80851,1.11403 0.7804,1.13175 0.75091,1.14872 0.72014,1.16489 0.69108,1.18071 0.66145,1.19538 0.62929,1.21072 0.60219,1.22371 0.56948,1.23699 0.53889,1.24973 0.50829,1.26241 0.47709,1.27312 0.44736,1.28443 0.41347,1.29351 0.38438,1.30361 0.35136,1.31129 0.31888,1.32115 0.28867,1.32695 0.25485,1.33606 0.22334,1.34105 0.19102,1.34744 0.15818,1.35173 0.12531,1.35603 0.0903,1.36082 0.0604,1.36321 0.0249,1.36593 -0.009,1.36806 -0.0412,1.36892 -0.0761,1.37028 -0.10997,1.37029 -0.14321,1.36903 -0.17856,1.36828 -0.21311,1.3662 -0.24763,1.36414 -0.28358,1.36129 -0.31734,1.35785 -0.35304,1.35157 -0.38897,1.34875 -0.4225,1.34182 -0.46032,1.33611 -0.49525,1.32846 -0.53094,1.32218 -0.56928,1.31429 -0.60346,1.30532 -0.64028,1.2948 -0.67787,1.28559 -0.7147,1.27503 -0.0323,0.0528 -0.69463,0.38562 -1.41214,0.73647 -1.42867,0.70014 -1.44386,0.66457 -1.45773,0.62979 -1.47214,0.59278 -1.48526,0.55666 -1.49833,0.52051 -1.50932,0.48373 -1.52028,0.44705 -1.53125,0.4103 -1.54015,0.37302 -1.54897,0.3357 -1.55782,0.2984 -1.56461,0.26055 -1.57131,0.2227 -1.57732,0.18351 -1.58269,0.14639 -1.58735,0.108 -1.59119,0.0682 -1.5937,0.0293 -1.59623,-0.01 -1.5966,-0.0493 -1.59781,-0.0876 -1.59955,-0.12793 -1.5978,-0.16803 -1.59611,-0.20818 -1.59363,-0.24965 -1.59135,-0.28767 -1.58805,-0.33046 -1.58289,-0.37041 -1.57833,-0.41241 -1.57309,-0.45235 -1.5651,-0.49419 -1.55833,-0.5368 -1.5524,-0.57803 -1.54089,-0.61968 -1.53338,-0.66362 -1.52266,-0.7039 -1.51167,-0.74767 -1.49943,-0.7906 -1.48712,-0.83351 -1.46543,-0.87114 -1.43437,-0.90324 -1.40337,-0.93532 -1.37092,-0.96672 -1.34142,-0.99612 -1.30707,-1.02463 -1.27679,-1.05543 -1.24403,-1.08115 -1.2105,-1.10835 -1.17829,-1.13619 -1.14633,-1.16064 -1.1122,-1.18566 -1.08025,-1.21005 -1.04479,-1.2343 -1.013,-1.25531 -0.97836,-1.27815 -0.94446,-1.29971 -0.91056,-1.32128 -0.87472,-1.33995 -0.84106,-1.35804 -0.80615,-1.37772 -0.7716,-1.39477 -0.73658,-1.41208 -0.70013,-1.42867 -0.6646,-1.44388 -0.62968,-1.45772 -0.59279,-1.47217 -0.55666,-1.48528 -0.5205,-1.4983 -0.48373,-1.50933 -0.44706,-1.52028 -0.41028,-1.53127 -0.37304,-1.54011 -0.33568,-1.54898 -0.29841,-1.55786 -0.26056,-1.56458 -0.2227,-1.57131 -0.18346,-1.57729 -0.14642,-1.58273 -0.10798,-1.58734 -0.0682,-1.59117 -0.0134,-0.79437"
       sodipodi:nodetypes="ccccccccccccccccccccccccccccccccccccccccccccccccccccccccccccccccccccccccccccccccccccccccccccccccccccccccccccccccccccccccccccccccccccccccccccccccccccccccccccccccccccccccccccccccccccccccccccccccccccccccccccccccccccc"
       inkscape:label="LWing"
       style="fill:#ffcd05;fill-opacity:1;stroke:#000000;stroke-width:1.72556;stroke-dasharray:none;stroke-opacity:1" /><path
       id="path14"
       style="fill:#e1cb96;fill-opacity:1;stroke:#000000;stroke-width:1.72556;stroke-dasharray:none;stroke-opacity:1"
       d="m 440.80661,456.32246 -1.41288,0.0243 -1.40538,0.0617 -1.40053,0.0959 -1.39078,0.13032 -1.3848,0.16626 -1.3758,0.19921 -1.36682,0.23368 -1.3567,0.26699 -1.3466,0.30034 -1.33574,0.33365 -1.32526,0.36548 -1.31364,0.39694 -1.30053,0.42951 -1.28818,0.45986 -1.27507,0.49055 -1.26047,0.52314 -1.24774,0.5501 -1.23164,0.58155 -1.2159,0.61113 -1.20092,0.64035 -1.18371,0.66843 -1.16835,0.69652 -1.14812,0.72497 -1.1324,0.75157 -1.11219,0.77889 -1.09345,0.80699 -1.07398,0.83095 -1.05414,0.85941 -1.03317,0.88413 -1.01256,0.90921 -0.98973,0.93393 -0.96763,0.95827 -0.94404,0.98411 -0.92269,1.00545 -0.89686,1.03055 -0.8729,1.05338 -0.84817,1.07511 -0.82272,1.0987 -0.7965,1.12041 -0.77029,1.14064 -0.74256,1.16311 -0.71525,1.1837 -0.68715,1.20393 -0.65757,1.22526 -0.62986,1.244 -0.59841,1.26234 -0.56882,1.28331 -0.53886,1.29942 -0.50628,1.31925 -0.47446,1.33611 -0.443,1.35409 -0.40892,1.37281 -0.37672,1.38779 -0.34189,1.40352 -0.30707,1.42036 -0.27186,1.43648 109.78285,19.35751 0.23555,-1.44246 0.19734,-1.43984 0.15878,-1.43572 0.12058,-1.4331 0.0858,-1.42973 0.0465,-1.42412 0.0105,-1.41774 -0.0243,-1.41288 -0.0617,-1.40539 -0.0959,-1.40052 -0.13031,-1.39078 -0.16627,-1.38442 -0.19921,-1.37618 -0.23367,-1.36681 -0.26737,-1.35672 -0.29996,-1.34659 -0.33365,-1.33536 -0.36549,-1.32563 -0.39731,-1.31327 -0.42914,-1.30053 -0.45985,-1.28857 -0.49056,-1.27507 -0.52314,-1.26047 -0.55009,-1.24773 -0.58156,-1.23126 -0.61113,-1.21628 -0.64035,-1.20093 -0.66843,-1.1837 -0.69651,-1.16835 -0.72498,-1.14813 -0.75156,-1.1324 -0.7789,-1.11218 -0.80699,-1.09345 -0.83094,-1.07398 -0.85941,-1.05414 -0.88413,-1.03316 -0.90922,-1.0122 -0.93393,-0.9901 -0.95827,-0.96763 -0.98411,-0.94404 -1.00545,-0.92232 -1.03054,-0.89724 -1.05339,-0.87289 -1.07511,-0.84817 -1.09869,-0.82271 -1.12042,-0.7965 -1.14064,-0.77029 -1.1631,-0.74258 -1.18371,-0.71486 -1.20392,-0.68716 -1.22527,-0.65794 -1.24399,-0.62986 -1.26234,-0.59803 -1.28331,-0.5692 -1.29941,-0.53886 -1.31927,-0.50629 -1.33611,-0.47445 -1.35409,-0.443 -1.37281,-0.40892 -1.38779,-0.37672 -1.40352,-0.34152 -1.42036,-0.30744 -1.43647,-0.27186 7.5e-4,7.4e-4 -1.44284,-0.23553 -1.43984,-0.19735 -1.43572,-0.15878 -1.43273,-0.12058 -1.42973,-0.0858 -1.4241,-0.0464 z m 100.44184,0.85587 1.44261,-0.23551 1.43991,-0.19728 1.43569,-0.15882 1.43299,-0.12062 1.42976,-0.0855 1.42401,-0.0466 1.41774,-0.0116 1.41297,0.0244 1.40542,0.0618 1.40041,0.0958 1.39082,0.1305 1.3845,0.16621 1.37618,0.19913 1.36657,0.23383 1.35671,0.26701 1.34683,0.30021 1.33544,0.33365 1.3253,0.36532 1.31363,0.39723 1.30045,0.42944 1.28851,0.45983 1.27505,0.49053 1.26034,0.52297 1.24786,0.55034 1.23138,0.58153 1.21611,0.61096 1.20084,0.64037 1.18382,0.66853 1.1683,0.69645 1.1482,0.7251 1.13241,0.7515 1.11205,0.77867 1.09347,0.8071 1.0741,0.83094 1.05401,0.85965 1.03311,0.88377 1.01247,0.9094 0.99004,0.93382 0.96763,0.9582 0.94394,0.98439 0.9225,1.00546 0.89703,1.03039 0.8728,1.05354 0.84831,1.07513 0.82257,1.09856 0.79656,1.12042 0.77028,1.14079 0.74274,1.16292 0.71494,1.18358 0.68713,1.20418 0.65779,1.22506 0.62971,1.24418 0.59833,1.26229 0.569,1.28319 0.53885,1.29949 0.50621,1.31943 0.47454,1.33599 0.44315,1.35412 0.40871,1.37275 0.37676,1.38783 0.3418,1.40343 0.30708,1.42054 0.2721,1.43616 -109.78319,19.35773 -0.2355,-1.4426 -0.19731,-1.43991 -0.15881,-1.43569 -0.12062,-1.43299 -0.0855,-1.42976 -0.0466,-1.42401 -0.0105,-1.41773 0.0244,-1.41298 0.0618,-1.40544 0.0958,-1.40039 0.13051,-1.39082 0.16621,-1.3845 0.19914,-1.37618 0.23383,-1.36657 0.26701,-1.35671 0.3002,-1.34683 0.33366,-1.33544 0.36531,-1.3253 0.39724,-1.31363 0.42944,-1.30045 0.45983,-1.28851 0.49051,-1.27505 0.52298,-1.26033 0.55033,-1.24787 0.58155,-1.23138 0.61097,-1.2161 0.64035,-1.20085 0.66855,-1.18381 0.69642,-1.1683 0.72512,-1.1482 0.7515,-1.13241 0.77866,-1.11205 0.80709,-1.09348 0.83094,-1.0741 0.85966,-1.05401 0.88376,-1.03311 0.90942,-1.01246 0.9338,-0.99005 0.95822,-0.96763 0.98438,-0.94394 1.00546,-0.9225 1.0304,-0.89702 1.05352,-0.87281 1.07515,-0.84831 1.09855,-0.82257 1.12042,-0.79656 1.14078,-0.77028 1.16295,-0.74274 1.18355,-0.71494 1.20419,-0.68713 1.22507,-0.65778 1.24417,-0.62973 1.2623,-0.59832 1.28319,-0.56899 1.29949,-0.53885 1.31942,-0.50622 1.33599,-0.47454 1.35411,-0.44315 1.37277,-0.40871 1.38782,-0.37676 1.40343,-0.3418 1.42055,-0.30708 1.43615,-0.2721"
       inkscape:label="Shells" /><path
       id="shape0"
       fill="none"
       stroke="#b1e6a1"
       stroke-width="0.930801"
       stroke-linecap="square"
       stroke-linejoin="miter"
       stroke-miterlimit="2"
       d="m 557.20782,435.03175 0.85679,0.73645 0.8313,0.75565 0.80745,0.77109 0.7833,0.78866 0.761,0.80415 0.73511,0.82004 0.71131,0.83363 0.68767,0.84866 0.66171,0.86289 0.63902,0.87689 0.61408,0.88814 0.58955,0.90225 0.56585,0.91375 0.54076,0.92528 0.51566,0.93622 0.49143,0.9466 0.4667,0.95608 0.44219,0.96626 0.41736,0.97522 0.39189,0.98335 0.36708,0.99173 0.34312,0.99866 0.31659,1.00609 0.29416,1.01226 0.26695,1.01828 0.2425,1.02358 0.21747,1.02925 0.19238,1.03308 0.16814,1.03779 0.14107,1.04014 0.11765,1.04389 0.0915,1.04539 0.0654,1.04845 0.0417,1.04886 0.0146,1.05121 -0.0103,1.05081 -0.0355,1.05137 -0.0611,1.05016 -0.0866,1.04902 -0.11379,1.04802 -0.13703,1.04579 -0.16442,1.04311 -0.19014,1.04022 -0.21515,1.03649 -0.24177,1.03287 -0.26768,1.02834 -0.29279,1.02285 -0.31969,1.01749 -0.34542,1.01152 -0.37151,1.00528 -0.39858,0.99809 -0.42398,0.99091 -0.45017,0.98142 -0.47699,0.97461 -0.50176,0.96466 -0.5298,0.95522 -0.5553,0.94477 -0.58156,0.93521 -0.60983,0.92401 -0.63454,0.91265 -0.66137,0.89955 -0.68743,0.88852 -0.6852,0.83735 0.0966,-0.60634 0.16169,-1.22037 0.13086,-1.22279 0.10104,-1.22445 0.072,-1.22527 0.0414,-1.22605 0.0116,-1.22589 -0.0181,-1.22593 -0.0475,-1.22417 -0.0771,-1.22241 -0.10683,-1.22066 -0.13625,-1.21727 -0.1657,-1.21385 -0.19507,-1.2104 -0.2244,-1.2053 -0.25367,-1.20018 -0.28368,-1.19416 -0.31247,-1.18817 -0.34109,-1.18156 -0.37115,-1.17373 -0.40008,-1.1653 -0.42913,-1.15678 -0.45798,-1.14662 -0.4861,-1.13738 -0.51558,-1.1281 -0.54449,-1.11612 -0.57303,-1.10437 -0.60259,-1.0915 -0.62986,-1.07968 -0.65976,-1.06626 -0.68748,-1.05178 -0.71694,-1.03728 -0.74436,-1.02306 -0.7728,-1.00604 -0.80194,-0.98996 -0.82995,-0.97499 -0.85752,-0.9553 -0.88729,-0.93848 -0.9141,-0.91955 -0.9428,-0.90024 -0.97059,-0.88011 -0.99803,-0.86047 -1.02073,-0.83337 -1.0353,-0.80309 -1.05025,-0.77219 -1.06465,-0.7401 -1.07826,-0.71083 -1.08966,-0.67865 -1.10412,-0.64833 -1.11413,-0.61789 -1.12495,-0.58631 -1.13668,-0.55556 -1.14614,-0.5257 -1.15524,-0.49441 -1.16459,-0.46465 -1.17276,-0.4325 -1.17956,-0.40391 -1.18699,-0.37272 -1.19373,-0.34236 -1.20049,-0.31208 -1.20447,-0.28112 -1.20875,-0.25191 -1.21377,-0.22163 -1.21703,-0.1917 -1.22041,-0.16169 -1.22276,-0.13085 -1.22441,-0.10107 -1.22532,-0.0721 -1.22605,-0.0413 -1.22589,-0.0116 -1.22595,0.018 -1.22415,0.0477 -1.22244,0.0773 -1.22066,0.10672 -1.21729,0.13625 -1.21378,0.1657 -1.21043,0.19506 -1.20529,0.22429 -1.2002,0.25378 -1.19409,0.28387 -1.1882,0.31249 -1.18149,0.34106 -1.17377,0.37116 -0.58098,0.19944 0.70562,-0.82016 0.75567,-0.83131 0.7711,-0.80749 0.78865,-0.78327 0.8041,-0.76101 0.82005,-0.7351 0.83366,-0.71134 0.84867,-0.68764 0.86287,-0.66172 0.87693,-0.639 0.88808,-0.61409 0.90226,-0.58954 0.91377,-0.56589 0.92529,-0.54074 0.9362,-0.51566 0.94651,-0.4916 0.95616,-0.46669 0.96622,-0.4422 0.97525,-0.41736 0.98334,-0.39187 0.99103,-0.36887 0.99868,-0.34313 1.00614,-0.31651 1.01223,-0.29435 1.01821,-0.26693 1.0237,-0.24234 1.02923,-0.21737 1.03306,-0.19267 1.03776,-0.16813 1.04013,-0.14106 1.04393,-0.11765 1.0453,-0.0915 1.04847,-0.0655 1.04887,-0.0416 1.05123,-0.0146 1.05076,0.0103 1.05139,0.0354 1.05012,0.0611 1.04906,0.0866 1.04805,0.11393 1.04579,0.13702 1.04307,0.1644 1.04023,0.19017 1.03653,0.21517 1.03284,0.24175 1.02833,0.26768 1.02287,0.29281 1.01748,0.31965 1.01156,0.34545 1.00524,0.37146 0.99808,0.39865 0.99097,0.42394 0.98135,0.45018 0.97457,0.47695 0.96471,0.50183 0.9552,0.52977 0.94479,0.55534 0.93523,0.58154 0.92398,0.60982 0.91263,0.63454 0.89956,0.66134 0.88851,0.68747 0.87412,0.71592"
       sodipodi:nodetypes="ccccccccccccccccccccccccccccccccccccccccccccccccccccccccccccccccccccccccccccccccccccccccccccccccccccccccccccccccccccccccccccccccccccccccccccccccccccccccccccccccccccccccccccccccccccccccccccccccccccccccccccccccccc"
       style="display:inline;fill:#a2c47b;fill-opacity:1;stroke:#000000;stroke-width:1.72556;stroke-dasharray:none;stroke-opacity:1"
       inkscape:label="RAntenae" /><path
       id="path1"
       fill="none"
       stroke="#b1e6a1"
       stroke-width="0.930801"
       stroke-linecap="square"
       stroke-linejoin="miter"
       stroke-miterlimit="2"
       d="m 435.45038,435.03176 -0.85679,0.73644 -0.83131,0.75565 -0.80744,0.77109 -0.7833,0.78866 -0.761,0.80416 -0.73511,0.82003 -0.71131,0.83363 -0.68767,0.84866 -0.66171,0.86289 -0.63902,0.8769 -0.61408,0.88814 -0.58955,0.90225 -0.56585,0.91374 -0.54077,0.92529 -0.51566,0.93622 -0.49142,0.9466 -0.4667,0.95608 -0.4422,0.96625 -0.41735,0.97523 -0.3919,0.98334 -0.36708,0.99174 -0.34312,0.99865 -0.31658,1.0061 -0.29416,1.01225 -0.26695,1.01828 -0.24251,1.02358 -0.21746,1.02926 -0.19239,1.03307 -0.16814,1.0378 -0.14106,1.04013 -0.11765,1.0439 -0.0916,1.04539 -0.0654,1.04845 -0.0417,1.04885 -0.0146,1.05121 0.0103,1.05081 0.0355,1.05138 0.0611,1.05016 0.0866,1.04902 0.11379,1.04802 0.13703,1.04579 0.16442,1.0431 0.19014,1.04022 0.21515,1.03649 0.24177,1.03288 0.26768,1.02834 0.29279,1.02285 0.31969,1.01749 0.34542,1.01151 0.37151,1.00528 0.39858,0.9981 0.42398,0.9909 0.45017,0.98143 0.47699,0.97461 0.50176,0.96466 0.5298,0.95522 0.5553,0.94477 0.58156,0.93521 0.60984,0.92401 0.63453,0.91264 0.66137,0.89956 0.68743,0.88851 0.6852,0.83735 -0.0966,-0.60633 -0.16169,-1.22037 -0.13086,-1.2228 -0.10104,-1.22444 -0.072,-1.22527 -0.0414,-1.22605 -0.0116,-1.2259 0.0182,-1.22593 0.0476,-1.22415 0.0772,-1.22242 0.10684,-1.22066 0.13624,-1.21726 0.1657,-1.21385 0.19507,-1.21041 0.2244,-1.2053 0.25368,-1.20018 0.28367,-1.19416 0.31247,-1.18816 0.34109,-1.18156 0.37115,-1.17373 0.40009,-1.16531 0.42912,-1.15678 0.45799,-1.14662 0.48609,-1.13738 0.51559,-1.12809 0.54448,-1.11612 0.57303,-1.10437 0.60259,-1.0915 0.62986,-1.07968 0.65976,-1.06627 0.68748,-1.05178 0.71694,-1.03728 0.74437,-1.02306 0.77279,-1.00604 0.80193,-0.98996 0.82996,-0.97498 0.85752,-0.95532 0.88729,-0.93847 0.9141,-0.91955 0.9428,-0.90024 0.9706,-0.88011 0.99802,-0.86046 1.02073,-0.83337 1.03531,-0.80309 1.05024,-0.77219 1.06465,-0.7401 1.07826,-0.71084 1.08966,-0.67865 1.10412,-0.64833 1.11413,-0.61789 1.12495,-0.5863 1.13668,-0.55556 1.14614,-0.52571 1.15525,-0.49441 1.16458,-0.46464 1.17276,-0.4325 1.17956,-0.40392 1.18699,-0.37271 1.19373,-0.34238 1.20049,-0.31207 1.20447,-0.28111 1.20875,-0.25192 1.21377,-0.22162 1.21703,-0.19171 1.22041,-0.16169 1.22276,-0.13085 1.22441,-0.10107 1.22532,-0.0721 1.22604,-0.0414 1.2259,-0.0116 1.22595,0.0181 1.22415,0.0477 1.22244,0.0773 1.22066,0.10671 1.21729,0.13625 1.21378,0.1657 1.21043,0.19506 1.20529,0.2243 1.2002,0.25377 1.19409,0.28387 1.1882,0.31249 1.18149,0.34106 1.17377,0.37116 0.58098,0.19944 -0.70562,-0.82016 -0.75567,-0.83131 -0.7711,-0.80748 -0.78865,-0.78327 -0.8041,-0.76101 -0.82005,-0.7351 -0.83366,-0.71134 -0.84867,-0.68765 -0.86287,-0.66172 -0.87693,-0.639 -0.88807,-0.61409 -0.90227,-0.58953 -0.91377,-0.56589 -0.92528,-0.54075 -0.93621,-0.51565 -0.94651,-0.49161 -0.95616,-0.46669 -0.96622,-0.44219 -0.97525,-0.41737 -0.98334,-0.39187 -0.99103,-0.36887 -0.99868,-0.34312 -1.00614,-0.31652 -1.01223,-0.29434 -1.01821,-0.26693 -1.0237,-0.24234 -1.02923,-0.21738 -1.03306,-0.19267 -1.03776,-0.16813 -1.04013,-0.14106 -1.04392,-0.11765 -1.04531,-0.0915 -1.04847,-0.0655 -1.04887,-0.0416 -1.05123,-0.0146 -1.05076,0.0103 -1.05138,0.0354 -1.05013,0.0611 -1.04906,0.0866 -1.04805,0.11394 -1.04579,0.13701 -1.04307,0.16441 -1.04023,0.19016 -1.03653,0.21517 -1.03284,0.24175 -1.02833,0.26768 -1.02287,0.29281 -1.01748,0.31965 -1.01156,0.34545 -1.00524,0.37146 -0.99808,0.39865 -0.99097,0.42395 -0.98135,0.45018 -0.97457,0.47694 -0.96471,0.50184 -0.9552,0.52976 -0.94479,0.55534 -0.93522,0.58154 -0.92399,0.60982 -0.91263,0.63455 -0.89956,0.66134 -0.88851,0.68747 -0.87412,0.71591"
       sodipodi:nodetypes="ccccccccccccccccccccccccccccccccccccccccccccccccccccccccccccccccccccccccccccccccccccccccccccccccccccccccccccccccccccccccccccccccccccccccccccccccccccccccccccccccccccccccccccccccccccccccccccccccccccccccccccccccccc"
       style="display:inline;fill:#a2c47b;fill-opacity:1;stroke:#000000;stroke-width:1.72556;stroke-dasharray:none;stroke-opacity:1"
       inkscape:label="LAntenae" /></g></svg>
